<svg width="32" xmlns="http://www.w3.org/2000/svg" height="32" fill="none"><g style="fill: rgb(0, 0, 0);"><path d="M6.667,26.667L6.667,24.000L25.333,24.000L25.333,26.667ZM6.667,22.000L4.967,11.300C4.922,11.300,4.872,11.306,4.816,11.317C4.760,11.329,4.710,11.334,4.667,11.333C4.111,11.333,3.639,11.139,3.251,10.749C2.862,10.360,2.668,9.888,2.667,9.333C2.666,8.779,2.860,8.307,3.251,7.917C3.641,7.528,4.113,7.333,4.667,7.333C5.220,7.333,5.693,7.528,6.084,7.917C6.475,8.307,6.669,8.779,6.667,9.333C6.667,9.489,6.650,9.633,6.616,9.767C6.582,9.900,6.544,10.022,6.500,10.133L10.667,12.000L14.833,6.300C14.589,6.122,14.389,5.889,14.233,5.600C14.078,5.311,14.000,5.000,14.000,4.667C14.000,4.111,14.195,3.639,14.584,3.249C14.973,2.860,15.445,2.666,16.000,2.667C16.555,2.668,17.027,2.862,17.417,3.251C17.808,3.639,18.002,4.111,18.000,4.667C18.000,5.000,17.922,5.311,17.767,5.600C17.611,5.889,17.411,6.122,17.167,6.300L21.333,12.000L25.500,10.133C25.456,10.022,25.416,9.900,25.383,9.767C25.349,9.633,25.332,9.489,25.333,9.333C25.333,8.778,25.528,8.305,25.917,7.916C26.307,7.527,26.779,7.332,27.333,7.333C27.888,7.334,28.360,7.529,28.751,7.917C29.141,8.306,29.335,8.778,29.333,9.333C29.332,9.889,29.137,10.361,28.751,10.751C28.364,11.140,27.892,11.334,27.333,11.333C27.289,11.333,27.239,11.328,27.184,11.317C27.129,11.307,27.079,11.301,27.033,11.300L25.333,22.000Z" style="fill: rgb(255, 255, 255); fill-opacity: 1;" class="fills"/></g></svg>