<svg width="32" xmlns="http://www.w3.org/2000/svg" height="32" fill="none"><g style="fill: rgb(0, 0, 0);"><path d="M20.093,15.000L18.893,16.227C17.933,17.187,17.333,18.000,17.333,20.000L14.667,20.000L14.667,19.333C14.667,17.853,15.267,16.520,16.227,15.560L17.880,13.880C18.373,13.400,18.667,12.733,18.667,12.000C18.667,10.527,17.473,9.333,16.000,9.333C14.527,9.333,13.333,10.527,13.333,12.000L10.667,12.000C10.667,9.054,13.054,6.667,16.000,6.667C18.946,6.667,21.333,9.054,21.333,12.000C21.331,13.124,20.886,14.202,20.093,15.000ZM17.333,25.333L14.667,25.333L14.667,22.667L17.333,22.667M16.000,2.667C8.636,2.667,2.667,8.636,2.667,16.000C2.667,23.364,8.636,29.333,16.000,29.333C23.364,29.333,29.333,23.364,29.333,16.000C29.333,8.627,23.333,2.667,16.000,2.667Z" style="fill: rgb(255, 255, 255); fill-opacity: 0.874999;" class="fills"/></g></svg>