<svg width="22" xmlns="http://www.w3.org/2000/svg" height="22" fill="none"><g style="fill: rgb(0, 0, 0);"><path d="M10.065,0.040C13.927,-0.290,17.678,1.438,19.938,4.587L19.938,2.406C19.938,1.837,20.399,1.375,20.969,1.375C21.538,1.375,22.000,1.837,22.000,2.406L22.000,8.250L16.156,8.250C15.587,8.250,15.125,7.788,15.125,7.219C15.125,6.649,15.587,6.188,16.156,6.188L18.531,6.188C16.609,3.180,13.082,1.605,9.560,2.180C6.037,2.755,3.195,5.371,2.329,8.833C2.244,9.195,1.971,9.483,1.614,9.587C1.256,9.691,0.871,9.595,0.605,9.335C0.339,9.075,0.233,8.692,0.329,8.333C1.469,3.773,5.381,0.441,10.065,0.040ZZM5.390,20.461C8.379,22.233,12.029,22.488,15.235,21.150C18.441,19.812,20.827,17.038,21.670,13.668C21.799,13.119,21.463,12.568,20.916,12.431C20.369,12.295,19.814,12.622,19.669,13.167C18.803,16.629,15.961,19.244,12.439,19.819C8.918,20.394,5.391,18.819,3.469,15.813L5.844,15.813C6.413,15.813,6.875,15.351,6.875,14.781C6.875,14.212,6.413,13.750,5.844,13.750L0.000,13.750L0.000,19.594C0.000,20.163,0.462,20.625,1.031,20.625C1.601,20.625,2.063,20.163,2.063,19.594L2.063,17.413C2.949,18.648,4.082,19.686,5.390,20.461Z" fill-rule="evenodd" clip-rule="evenodd" style="fill: rgb(255, 255, 255); fill-opacity: 1;" class="fills"/></g></svg>